<svg width="25" height="25" viewBox="0 0 25 25" fill="none" xmlns="http://www.w3.org/2000/svg">
<path d="M12.2666 0.533325C5.49848 0.533325 0.0166016 6.0152 0.0166016 12.7833C0.0166016 18.204 3.52316 22.7824 8.39254 24.4055C9.00504 24.5127 9.23473 24.1452 9.23473 23.8236C9.23473 23.5327 9.21941 22.568 9.21941 21.5421C6.1416 22.1086 5.34535 20.7918 5.10035 20.1027C4.96254 19.7505 4.36535 18.6633 3.84473 18.3724C3.41598 18.1427 2.80348 17.5761 3.82941 17.5608C4.7941 17.5455 5.48316 18.4489 5.71285 18.8164C6.81535 20.6693 8.57629 20.1486 9.28066 19.8271C9.38785 19.0308 9.70941 18.4949 10.0616 18.1886C7.33598 17.8824 4.48785 16.8258 4.48785 12.1402C4.48785 10.808 4.96254 9.70551 5.74348 8.84801C5.62098 8.54176 5.19223 7.28614 5.86598 5.60176C5.86598 5.60176 6.89191 5.2802 9.23473 6.85739C10.2147 6.58176 11.256 6.44395 12.2972 6.44395C13.3385 6.44395 14.3797 6.58176 15.3597 6.85739C17.7025 5.26489 18.7285 5.60176 18.7285 5.60176C19.4022 7.28614 18.9735 8.54176 18.851 8.84801C19.6319 9.70551 20.1066 10.7927 20.1066 12.1402C20.1066 16.8411 17.2432 17.8824 14.5175 18.1886C14.9616 18.5714 15.3444 19.3065 15.3444 20.4549C15.3444 22.0933 15.3291 23.4102 15.3291 23.8236C15.3291 24.1452 15.5588 24.528 16.1713 24.4055C18.6031 23.5845 20.7163 22.0216 22.2134 19.9367C23.7104 17.8519 24.5159 15.35 24.5166 12.7833C24.5166 6.0152 19.0347 0.533325 12.2666 0.533325Z" fill="black"/>
</svg>
