<svg width="29" height="29" viewBox="0 0 29 29" fill="none" xmlns="http://www.w3.org/2000/svg">
<path d="M14.2666 2.53333C7.49848 2.53333 2.0166 8.0152 2.0166 14.7833C2.0166 20.204 5.52316 24.7824 10.3925 26.4055C11.005 26.5127 11.2347 26.1452 11.2347 25.8236C11.2347 25.5327 11.2194 24.568 11.2194 23.5421C8.1416 24.1086 7.34535 22.7918 7.10035 22.1027C6.96254 21.7505 6.36535 20.6633 5.84473 20.3724C5.41598 20.1427 4.80348 19.5761 5.82941 19.5608C6.7941 19.5455 7.48316 20.4489 7.71285 20.8164C8.81535 22.6693 10.5763 22.1486 11.2807 21.8271C11.3879 21.0308 11.7094 20.4949 12.0616 20.1886C9.33598 19.8824 6.48785 18.8258 6.48785 14.1402C6.48785 12.808 6.96254 11.7055 7.74348 10.848C7.62098 10.5418 7.19223 9.28614 7.86598 7.60176C7.86598 7.60176 8.89191 7.2802 11.2347 8.85739C12.2147 8.58176 13.256 8.44395 14.2972 8.44395C15.3385 8.44395 16.3797 8.58176 17.3597 8.85739C19.7025 7.26489 20.7285 7.60176 20.7285 7.60176C21.4022 9.28614 20.9735 10.5418 20.851 10.848C21.6319 11.7055 22.1066 12.7927 22.1066 14.1402C22.1066 18.8411 19.2432 19.8824 16.5175 20.1886C16.9616 20.5714 17.3444 21.3065 17.3444 22.4549C17.3444 24.0933 17.3291 25.4102 17.3291 25.8236C17.3291 26.1452 17.5588 26.528 18.1713 26.4055C20.6031 25.5845 22.7163 24.0216 24.2134 21.9367C25.7104 19.8519 26.5159 17.35 26.5166 14.7833C26.5166 8.0152 21.0347 2.53333 14.2666 2.53333Z" fill="white"/>
</svg>
