<svg width="29" height="29" viewBox="0 0 29 29" fill="none" xmlns="http://www.w3.org/2000/svg">
<rect x="2.0166" y="2.53333" width="24.5" height="24.5" rx="2.48646" fill="url(#paint0_radial_2_132)"/>
<rect x="2.0166" y="2.53333" width="24.5" height="24.5" rx="2.48646" fill="url(#paint1_radial_2_132)"/>
<rect x="2.0166" y="2.53333" width="24.5" height="24.5" rx="2.48646" fill="url(#paint2_radial_2_132)"/>
<path d="M20.3916 9.97083C20.3916 10.6957 19.804 11.2833 19.0791 11.2833C18.3542 11.2833 17.7666 10.6957 17.7666 9.97083C17.7666 9.24595 18.3542 8.65833 19.0791 8.65833C19.804 8.65833 20.3916 9.24595 20.3916 9.97083Z" fill="white"/>
<path fill-rule="evenodd" clip-rule="evenodd" d="M14.2666 19.1583C16.6828 19.1583 18.6416 17.1996 18.6416 14.7833C18.6416 12.3671 16.6828 10.4083 14.2666 10.4083C11.8504 10.4083 9.8916 12.3671 9.8916 14.7833C9.8916 17.1996 11.8504 19.1583 14.2666 19.1583ZM14.2666 17.4083C15.7164 17.4083 16.8916 16.2331 16.8916 14.7833C16.8916 13.3336 15.7164 12.1583 14.2666 12.1583C12.8169 12.1583 11.6416 13.3336 11.6416 14.7833C11.6416 16.2331 12.8169 17.4083 14.2666 17.4083Z" fill="white"/>
<path fill-rule="evenodd" clip-rule="evenodd" d="M5.5166 14.4333C5.5166 11.4931 5.5166 10.0229 6.08882 8.89988C6.59215 7.91202 7.3953 7.10888 8.38315 6.60554C9.50619 6.03333 10.9763 6.03333 13.9166 6.03333H14.6166C17.5569 6.03333 19.027 6.03333 20.1501 6.60554C21.1379 7.10888 21.9411 7.91202 22.4444 8.89988C23.0166 10.0229 23.0166 11.4931 23.0166 14.4333V15.1333C23.0166 18.0736 23.0166 19.5437 22.4444 20.6668C21.9411 21.6546 21.1379 22.4578 20.1501 22.9611C19.027 23.5333 17.5569 23.5333 14.6166 23.5333H13.9166C10.9763 23.5333 9.50619 23.5333 8.38315 22.9611C7.3953 22.4578 6.59215 21.6546 6.08882 20.6668C5.5166 19.5437 5.5166 18.0736 5.5166 15.1333V14.4333ZM13.9166 7.78333H14.6166C16.1156 7.78333 17.1346 7.78469 17.9223 7.84904C18.6895 7.91173 19.0819 8.02535 19.3556 8.1648C20.0141 8.50036 20.5496 9.03579 20.8851 9.69436C21.0246 9.96806 21.1382 10.3604 21.2009 11.1276C21.2652 11.9153 21.2666 12.9343 21.2666 14.4333V15.1333C21.2666 16.6323 21.2652 17.6514 21.2009 18.439C21.1382 19.2062 21.0246 19.5986 20.8851 19.8723C20.5496 20.5309 20.0141 21.0663 19.3556 21.4018C19.0819 21.5413 18.6895 21.6549 17.9223 21.7176C17.1346 21.782 16.1156 21.7833 14.6166 21.7833H13.9166C12.4176 21.7833 11.3986 21.782 10.6109 21.7176C9.84369 21.6549 9.45133 21.5413 9.17764 21.4018C8.51907 21.0663 7.98364 20.5309 7.64808 19.8723C7.50862 19.5986 7.395 19.2062 7.33232 18.439C7.26796 17.6514 7.2666 16.6323 7.2666 15.1333V14.4333C7.2666 12.9343 7.26796 11.9153 7.33232 11.1276C7.395 10.3604 7.50862 9.96806 7.64808 9.69436C7.98364 9.03579 8.51907 8.50036 9.17764 8.1648C9.45133 8.02535 9.84369 7.91173 10.6109 7.84904C11.3986 7.78469 12.4176 7.78333 13.9166 7.78333Z" fill="white"/>
<defs>
<radialGradient id="paint0_radial_2_132" cx="0" cy="0" r="1" gradientUnits="userSpaceOnUse" gradientTransform="translate(10.7666 20.9083) rotate(-55.3758) scale(22.3297)">
<stop stop-color="#B13589"/>
<stop offset="0.79309" stop-color="#C62F94"/>
<stop offset="1" stop-color="#8A3AC8"/>
</radialGradient>
<radialGradient id="paint1_radial_2_132" cx="0" cy="0" r="1" gradientUnits="userSpaceOnUse" gradientTransform="translate(9.8916 27.9083) rotate(-65.1363) scale(19.77)">
<stop stop-color="#E0E8B7"/>
<stop offset="0.444662" stop-color="#FB8A2E"/>
<stop offset="0.71474" stop-color="#E2425C"/>
<stop offset="1" stop-color="#E2425C" stop-opacity="0"/>
</radialGradient>
<radialGradient id="paint2_radial_2_132" cx="0" cy="0" r="1" gradientUnits="userSpaceOnUse" gradientTransform="translate(0.704103 3.40833) rotate(-8.1301) scale(34.0295 7.27856)">
<stop offset="0.156701" stop-color="#406ADC"/>
<stop offset="0.467799" stop-color="#6A45BE"/>
<stop offset="1" stop-color="#6A45BE" stop-opacity="0"/>
</radialGradient>
</defs>
</svg>
