<svg width="29" height="29" viewBox="0 0 29 29" fill="none" xmlns="http://www.w3.org/2000/svg">
<rect x="2.0166" y="2.53333" width="24.5" height="24.5" rx="12.25" fill="#1275B1"/>
<path d="M11.3078 9.26396C11.3078 10.0817 10.5991 10.7446 9.72472 10.7446C8.85039 10.7446 8.1416 10.0817 8.1416 9.26396C8.1416 8.44623 8.85039 7.78333 9.72472 7.78333C10.5991 7.78333 11.3078 8.44623 11.3078 9.26396Z" fill="white"/>
<path d="M8.3581 11.8329H11.0643V20.0333H8.3581V11.8329Z" fill="white"/>
<path d="M15.4212 11.8329H12.7151V20.0333H15.4212C15.4212 20.0333 15.4212 17.4517 15.4212 15.8376C15.4212 14.8687 15.7521 13.8957 17.072 13.8957C18.5637 13.8957 18.5548 15.1635 18.5478 16.1458C18.5387 17.4297 18.5604 18.7399 18.5604 20.0333H21.2666V15.7053C21.2437 12.9418 20.5236 11.6684 18.1545 11.6684C16.7476 11.6684 15.8755 12.3071 15.4212 12.885V11.8329Z" fill="white"/>
</svg>
