<svg width="29" height="29" viewBox="0 0 29 29" fill="none" xmlns="http://www.w3.org/2000/svg">
<path d="M9.53321 25C6.76035 25 4.17558 24.1818 2 22.7701C3.84714 22.8914 7.10692 22.601 9.1345 20.6389C6.08435 20.497 4.7088 18.1237 4.52938 17.1095C4.78854 17.211 6.02454 17.3327 6.72229 17.0487C3.21363 16.1562 2.67537 13.0325 2.79498 12.0791C3.45285 12.5456 4.56925 12.7079 5.00783 12.6673C1.73839 10.2941 2.91459 6.72414 3.49273 5.95335C5.83899 9.25101 9.35532 11.1031 13.7055 11.2061C13.6234 10.8412 13.5801 10.4612 13.5801 10.071C13.5801 7.27036 15.8115 5 18.564 5C20.0022 5 21.2981 5.61979 22.2077 6.61116C23.1688 6.3827 24.6151 5.84789 25.3222 5.3854C24.9658 6.68357 23.8562 7.76651 23.1851 8.16789C23.1906 8.18155 23.1796 8.15418 23.1851 8.16789C23.7746 8.07742 25.3698 7.76641 26 7.33266C25.6884 8.06196 24.512 9.27455 23.5466 9.95341C23.7262 17.9896 17.6656 25 9.53321 25Z" fill="#47ACDF"/>
</svg>
